<?xml version="1.0" encoding="utf-8"?>
<!-- Generator: Adobe Illustrator 21.0.2, SVG Export Plug-In . SVG Version: 6.00 Build 0)  -->
<svg version="1.1" id="Layer_1" xmlns="http://www.w3.org/2000/svg" xmlns:xlink="http://www.w3.org/1999/xlink" x="0px" y="0px"
	 viewBox="0 0 477.6 224.5" style="enable-background:new 0 0 477.6 224.5;" xml:space="preserve">
<style type="text/css">
	.st0{fill:#FFFFFF;}
	.st1{font-family:'ArialMT';}
	.st2{font-size:72px;}
	.st3{letter-spacing:-1;}
</style>
<title>6.1</title>
<path class="st0" d="M305.3,132.5h-35.1c-0.7,0-1.3-0.3-1.8-0.9c-0.4-0.5-0.3-1.2,0.1-1.7c0.1-0.1,11.6-14.8,12.9-25.9
	c0.9-7.4-1.5-15.6-3.3-20.4l-2.5,4.7c-4.8,9.1-14.2,13-14.6,13.2c-0.6,0.3-1.4,0.2-2-0.1c-0.6-0.3-0.9-0.8-0.9-1.4
	c0-0.1,0.4-14.1-3.5-23.9c-2.7-6.7-10.9-13-15.5-16.2c-0.3,4.7-1.3,9.4-3,13.9c-2.1,6-9.7,10.1-17.7,14.4c-8.9,4.8-18.1,9.7-21,17.6
	c-5.4,14.4,10.4,23.3,11,23.7c0.7,0.3,1,1.1,0.8,1.8c-0.3,0.7-1.1,1.2-1.9,1.2H170c-0.4,0-0.8-0.1-1.2-0.3
	c-12.6-8.6-20.1-22.9-19.9-38.1c0-25.6,23.7-45.4,24.7-46.2c0.6-0.5,1.4-0.6,2.1-0.4c0.7,0.2,1.2,0.7,1.3,1.4
	c0.6,3.3,2.4,6.2,4.9,8.4c3,2.2,6.4,3.7,10,4.4c0.8-5.9,3.9-24.3,15.6-38.7C221.5,5.6,249,0.3,250.2,0c0.8-0.2,1.7,0.2,2.2,0.9
	c0.4,0.7,0.2,1.6-0.5,2c0,0,0,0,0,0c-0.2,0.2-5.6,4.2-5.2,12.6c0.3,6.6,4.2,9.5,11.8,15.3c2.3,1.7,4.8,3.7,7.7,6
	c6.3,5.2,11.5,11.5,15.3,18.6c1.3-2.9,2.9-5.6,4.8-8.1c4.4-5.7,19.5-9.9,20.2-10.1c0.8-0.2,1.7,0,2.3,0.6c0.5,0.6,0.5,1.5-0.1,2
	c0,0-3.6,4-2.7,16.1c0.4,5.5,5.1,11.2,10.1,17.2c6.2,7.4,13.2,15.8,13.2,25.7c0,17.9-21.7,32.6-22.6,33.2
	C306.2,132.4,305.8,132.5,305.3,132.5z M273.8,129.2h30.8c3.3-2.3,20.6-15.5,20.6-30.3c0-8.9-6.3-16.5-12.5-23.9
	c-5.3-6.4-10.3-12.4-10.8-18.9c-0.5-7,0.4-11.6,1.4-14.4c-4.9,1.7-11.5,4.5-13.7,7.3c-2.6,3.5-4.7,7.4-6.1,11.6
	c-0.5,1.1-1.8,1.5-2.9,0.9c-0.4-0.2-0.7-0.5-0.9-0.9c-3.7-8.4-9.3-15.8-16.4-21.6c-2.8-2.3-5.3-4.2-7.5-5.9
	c-7.6-5.8-12.7-9.7-13.1-17.6c-0.2-3.9,0.7-7.7,2.8-11c-8.6,2.5-25.3,8.5-34.7,20.1c-13.2,16.4-15.1,38.8-15.2,39
	c0,0.5-0.3,0.9-0.7,1.2c-0.5,0.3-1,0.4-1.5,0.4c-0.3,0-8.6-1-14.3-5.7c-2.3-1.9-4.1-4.4-5.1-7.1c-6,5.8-21.1,22.3-21.1,41.7
	c-0.1,13.9,6.6,27,17.8,35.2H202c-5.2-4.3-12.7-12.9-8.4-24.4c3.4-9,13.6-14.5,22.7-19.4c7.4-4,14.3-7.7,16-12.5
	c3.9-11,2.7-16.1,2.7-16.1c-0.1-0.7,0.2-1.4,0.9-1.7c0.7-0.4,1.5-0.4,2.2,0c0.7,0.4,16.1,9.5,20.3,20c3,7.5,3.7,17.1,3.8,21.9
	c4.1-2.4,7.5-5.9,9.8-10l4.6-8.6c0.7-1,2-1.3,3-0.6c0.3,0.2,0.5,0.4,0.7,0.7c0.3,0.6,6.5,14,5.1,25.9
	C284.4,113.5,277.3,124.4,273.8,129.2L273.8,129.2z"/>
<g id="Layer_2">
	<path class="st0" d="M274.4,129.2h201.5c0.9,0,1.6,0.7,1.6,1.6v0c0,0.9-0.7,1.6-1.6,1.6H274.4c-0.9,0-1.6-0.7-1.6-1.6v0
		C272.8,130,273.5,129.2,274.4,129.2z"/>
	<path class="st0" d="M61,214.4h369.6c0.9,0,1.6,0.7,1.6,1.6v0c0,0.9-0.7,1.6-1.6,1.6H61c-0.9,0-1.6-0.7-1.6-1.6v0
		C59.4,215.1,60.1,214.4,61,214.4z"/>
	<path class="st0" d="M1.6,129.2h201.5c0.9,0,1.6,0.7,1.6,1.6v0c0,0.9-0.7,1.6-1.6,1.6H1.6c-0.9,0-1.6-0.7-1.6-1.6v0
		C0,130,0.7,129.2,1.6,129.2z"/>
</g>
<g id="Layer_3">
	<text transform="matrix(1 0 0 1 50.82 197.67)" class="st0 st1 st2">DM S</text>
	<text transform="matrix(1 0 0 1 235.72 197.67)" class="st0 st1 st2 st3">t</text>
	<text transform="matrix(1 0 0 1 278.41 197.67)" class="st0 st1 st2">o</text>
	<text transform="matrix(1 0 0 1 339.47 197.67)" class="st0 st1 st2">n</text>
	<text transform="matrix(1 0 0 1 399.3 197.67)" class="st0 st1 st2">e</text>
</g>
</svg>
