<svg id="Layer_1" data-name="Layer 1" xmlns="http://www.w3.org/2000/svg" viewBox="0 0 477.58 224.53"><defs><style>.cls-1{font-size:72px;font-family:CinzelDecorative-Regular,Cinzel Decorative}.cls-2{letter-spacing:-.02em}.cls-3{letter-spacing:0}.cls-4{letter-spacing:-.01em}</style></defs><title>6.1</title><path d="M937.34 508.53h-35.07a2.09 2.09 0 0 1-1.75-.86 1.4 1.4 0 0 1 .08-1.68c.12-.15 11.59-14.83 12.9-25.94.86-7.37-1.54-15.65-3.27-20.43l-2.48 4.71c-4.79 9.08-14.2 13-14.6 13.21a2.36 2.36 0 0 1-2-.08 1.59 1.59 0 0 1-.92-1.43c0-.14.4-14.11-3.54-23.86-2.71-6.7-10.86-13-15.51-16.19a47.79 47.79 0 0 1-3 13.87c-2.11 6-9.68 10.06-17.69 14.36-8.89 4.78-18.08 9.71-21 17.6-5.4 14.39 10.37 23.32 11 23.7a1.51 1.51 0 0 1 .8 1.84 2 2 0 0 1-1.9 1.16h-37.33a2.28 2.28 0 0 1-1.18-.32 45.57 45.57 0 0 1-19.94-38.14c0-25.56 23.71-45.41 24.72-46.24a2.3 2.3 0 0 1 2.06-.39 1.75 1.75 0 0 1 1.33 1.36 14.94 14.94 0 0 0 4.89 8.42 24.68 24.68 0 0 0 10 4.43c.75-5.91 3.94-24.3 15.61-38.74 13.94-17.25 41.49-22.64 42.66-22.86a2.15 2.15 0 0 1 2.22.86 1.45 1.45 0 0 1-.48 2c-.22.16-5.64 4.18-5.23 12.59.32 6.57 4.15 9.49 11.8 15.31 2.26 1.72 4.83 3.68 7.66 6a63.12 63.12 0 0 1 15.32 18.65 42.93 42.93 0 0 1 4.83-8.1c4.43-5.68 19.54-9.89 20.18-10.06a2.24 2.24 0 0 1 2.27.63 1.42 1.42 0 0 1-.1 2s-3.58 4-2.74 16.15c.38 5.53 5.09 11.19 10.08 17.18 6.17 7.41 13.16 15.82 13.16 25.74 0 17.86-21.68 32.59-22.6 33.21a2.27 2.27 0 0 1-1.24.34zm-31.52-3.29h30.78c3.26-2.34 20.6-15.47 20.6-30.29 0-8.91-6.33-16.52-12.46-23.88-5.31-6.38-10.32-12.41-10.77-18.85-.49-7 .4-11.59 1.43-14.44-4.91 1.7-11.46 4.47-13.7 7.34a45.52 45.52 0 0 0-6.13 11.57 2.14 2.14 0 0 1-3.82 0 58.22 58.22 0 0 0-16.36-21.62c-2.77-2.29-5.31-4.22-7.54-5.92-7.64-5.82-12.69-9.66-13.08-17.59a18.45 18.45 0 0 1 2.81-11c-8.64 2.45-25.27 8.45-34.69 20.09-13.22 16.35-15.14 38.8-15.16 39a1.57 1.57 0 0 1-.73 1.17 2.31 2.31 0 0 1-1.53.35c-.35 0-8.6-1-14.34-5.72a17.48 17.48 0 0 1-5.12-7.15c-6 5.82-21.09 22.25-21.09 41.67a43.1 43.1 0 0 0 17.84 35.18H834c-5.18-4.27-12.71-12.85-8.38-24.39 3.39-9 13.63-14.53 22.67-19.38 7.37-4 14.34-7.7 16-12.52 3.86-11 2.71-16.07 2.7-16.12a1.54 1.54 0 0 1 .87-1.7 2.35 2.35 0 0 1 2.23 0c.65.38 16.07 9.45 20.33 20 3 7.54 3.65 17.11 3.75 21.93a27.1 27.1 0 0 0 9.84-10l4.56-8.64a2.18 2.18 0 0 1 3.68.06c.27.57 6.53 14 5.14 25.93-1 9.18-8.09 20.06-11.56 24.92z" transform="translate(-632.01 -376)"/><g id="Layer_2" data-name="Layer 2"><rect x="272.78" y="129.24" width="204.8" height="3.29" rx="1.64" ry="1.64"/><rect x="59.36" y="214.36" width="372.88" height="3.29" rx="1.64" ry="1.64"/><rect y="129.24" width="204.8" height="3.29" rx="1.64" ry="1.64"/></g><text class="cls-1" transform="translate(50.82 197.67)" id="Layer_3" data-name="Layer 3">DM S<tspan class="cls-2" x="184.9" y="0">t</tspan><tspan class="cls-3" x="227.59" y="0">o</tspan><tspan class="cls-4" x="288.65" y="0">n</tspan><tspan x="348.48" y="0">e</tspan></text></svg>